<?xml version="1.0" encoding="utf-8" standalone="no"?>
<!DOCTYPE svg PUBLIC "-//W3C//DTD SVG 1.1//EN"
  "http://www.w3.org/Graphics/SVG/1.1/DTD/svg11.dtd">
<svg xmlns:xlink="http://www.w3.org/1999/xlink" width="639.869062pt" height="395.834062pt" viewBox="0 0 639.869062 395.834062" xmlns="http://www.w3.org/2000/svg" version="1.1">
 <metadata>
  <rdf:RDF xmlns:dc="http://purl.org/dc/elements/1.1/" xmlns:cc="http://creativecommons.org/ns#" xmlns:rdf="http://www.w3.org/1999/02/22-rdf-syntax-ns#">
   <cc:Work>
    <dc:type rdf:resource="http://purl.org/dc/dcmitype/StillImage"/>
    <dc:date>2026-08-20T11:30:17.305810</dc:date>
    <dc:format>image/svg+xml</dc:format>
    <dc:creator>
     <cc:Agent>
      <dc:title>Matplotlib v3.11.1, https://matplotlib.org/</dc:title>
     </cc:Agent>
    </dc:creator>
   </cc:Work>
  </rdf:RDF>
 </metadata>
 <defs>
  <style type="text/css">*{stroke-linejoin: round; stroke-linecap: butt}</style>
 </defs>
 <g id="figure_1">
  <g id="patch_1">
   <path d="M 0 395.834062 
L 639.869062 395.834062 
L 639.869062 0 
L 0 0 
z
" style="fill: #fcfcfb"/>
  </g>
  <g id="axes_1">
   <g id="patch_2">
    <path d="M 115.969062 376.577207 
L 632.669062 376.577207 
L 632.669062 28.21125 
L 115.969062 28.21125 
z
" style="fill: #fcfcfb"/>
   </g>
   <g id="matplotlib.axis_1">
    <g id="xtick_1">
     <g id="line2d_1">
      <path d="M 115.969062 376.577207 
L 115.969062 28.21125 
" clip-path="url(#p073858f219)" style="fill: none; stroke: #e1e0d9; stroke-linecap: square"/>
     </g>
     <g id="line2d_2"/>
     <g id="text_1">
      <!-- 0.00 -->
      <g style="fill: #52514e" transform="translate(107.715781 386.629453) scale(0.09 -0.09)">
       <defs>
        <path id="SegoeUI-13" d="M 3188 2259 
Q 3188 1697 3086 1262 
Q 2984 828 2792 529 
Q 2600 231 2320 76 
Q 2041 -78 1684 -78 
Q 1347 -78 1083 70 
Q 819 219 637 503 
Q 456 788 362 1202 
Q 269 1616 269 2150 
Q 269 2738 367 3188 
Q 466 3638 656 3942 
Q 847 4247 1130 4401 
Q 1413 4556 1778 4556 
Q 3188 4556 3188 2259 
z
M 2663 2209 
Q 2663 4122 1753 4122 
Q 794 4122 794 2175 
Q 794 359 1734 359 
Q 2663 359 2663 2209 
z
" transform="scale(0.015625)"/>
        <path id="SegoeUI-11" d="M 697 -69 
Q 553 -69 451 34 
Q 350 138 350 281 
Q 350 425 451 529 
Q 553 634 697 634 
Q 844 634 947 529 
Q 1050 425 1050 281 
Q 1050 138 947 34 
Q 844 -69 697 -69 
z
" transform="scale(0.015625)"/>
       </defs>
       <use xlink:href="#SegoeUI-13"/>
       <use xlink:href="#SegoeUI-11" transform="translate(53.90625 0)"/>
       <use xlink:href="#SegoeUI-13" transform="translate(75.59375 0)"/>
       <use xlink:href="#SegoeUI-13" transform="translate(129.5 0)"/>
      </g>
     </g>
    </g>
    <g id="xtick_2">
     <g id="line2d_3">
      <path d="M 174.283992 376.577207 
L 174.283992 28.21125 
" clip-path="url(#p073858f219)" style="fill: none; stroke: #e1e0d9; stroke-linecap: square"/>
     </g>
     <g id="line2d_4"/>
     <g id="text_2">
      <!-- 10.0bn -->
      <g style="fill: #52514e" transform="translate(160.838132 386.74002) scale(0.09 -0.09)">
       <defs>
        <path id="SegoeUI-14" d="M 2263 0 
L 1750 0 
L 1750 3872 
Q 1691 3813 1577 3736 
Q 1463 3659 1320 3584 
Q 1178 3509 1020 3443 
Q 863 3378 713 3341 
L 713 3859 
Q 881 3906 1070 3986 
Q 1259 4066 1442 4164 
Q 1625 4263 1787 4370 
Q 1950 4478 2069 4581 
L 2263 4581 
L 2263 0 
z
" transform="scale(0.015625)"/>
        <path id="SegoeUI-45" d="M 1044 463 
L 1031 463 
L 1031 0 
L 519 0 
L 519 4738 
L 1031 4738 
L 1031 2638 
L 1044 2638 
Q 1422 3275 2150 3275 
Q 2766 3275 3114 2845 
Q 3463 2416 3463 1694 
Q 3463 891 3072 408 
Q 2681 -75 2003 -75 
Q 1369 -75 1044 463 
z
M 1031 1753 
L 1031 1306 
Q 1031 909 1289 632 
Q 1547 356 1944 356 
Q 2409 356 2673 712 
Q 2938 1069 2938 1703 
Q 2938 2238 2691 2541 
Q 2444 2844 2022 2844 
Q 1575 2844 1303 2533 
Q 1031 2222 1031 1753 
z
" transform="scale(0.015625)"/>
        <path id="SegoeUI-51" d="M 3175 0 
L 2663 0 
L 2663 1825 
Q 2663 2844 1919 2844 
Q 1534 2844 1282 2555 
Q 1031 2266 1031 1825 
L 1031 0 
L 519 0 
L 519 3200 
L 1031 3200 
L 1031 2669 
L 1044 2669 
Q 1406 3275 2094 3275 
Q 2619 3275 2897 2936 
Q 3175 2597 3175 1956 
L 3175 0 
z
" transform="scale(0.015625)"/>
       </defs>
       <use xlink:href="#SegoeUI-14"/>
       <use xlink:href="#SegoeUI-13" transform="translate(53.90625 0)"/>
       <use xlink:href="#SegoeUI-11" transform="translate(107.8125 0)"/>
       <use xlink:href="#SegoeUI-13" transform="translate(129.5 0)"/>
       <use xlink:href="#SegoeUI-45" transform="translate(183.40625 0)"/>
       <use xlink:href="#SegoeUI-51" transform="translate(242.203125 0)"/>
      </g>
     </g>
    </g>
    <g id="xtick_3">
     <g id="line2d_5">
      <path d="M 232.598921 376.577207 
L 232.598921 28.21125 
" clip-path="url(#p073858f219)" style="fill: none; stroke: #e1e0d9; stroke-linecap: square"/>
     </g>
     <g id="line2d_6"/>
     <g id="text_3">
      <!-- 20.0bn -->
      <g style="fill: #52514e" transform="translate(219.153061 386.74002) scale(0.09 -0.09)">
       <defs>
        <path id="SegoeUI-15" d="M 2413 3306 
Q 2413 3513 2348 3666 
Q 2284 3819 2173 3920 
Q 2063 4022 1913 4072 
Q 1763 4122 1588 4122 
Q 1438 4122 1294 4081 
Q 1150 4041 1014 3969 
Q 878 3897 751 3797 
Q 625 3697 516 3575 
L 516 4125 
Q 731 4334 998 4445 
Q 1266 4556 1650 4556 
Q 1925 4556 2159 4476 
Q 2394 4397 2566 4244 
Q 2738 4091 2836 3866 
Q 2934 3641 2934 3350 
Q 2934 3084 2873 2868 
Q 2813 2653 2689 2462 
Q 2566 2272 2378 2097 
Q 2191 1922 1938 1741 
Q 1622 1516 1417 1356 
Q 1213 1197 1092 1058 
Q 972 919 923 780 
Q 875 641 875 459 
L 3106 459 
L 3106 0 
L 341 0 
L 341 222 
Q 341 509 403 728 
Q 466 947 609 1144 
Q 753 1341 986 1537 
Q 1219 1734 1556 1981 
Q 1800 2156 1964 2315 
Q 2128 2475 2228 2634 
Q 2328 2794 2370 2958 
Q 2413 3122 2413 3306 
z
" transform="scale(0.015625)"/>
       </defs>
       <use xlink:href="#SegoeUI-15"/>
       <use xlink:href="#SegoeUI-13" transform="translate(53.90625 0)"/>
       <use xlink:href="#SegoeUI-11" transform="translate(107.8125 0)"/>
       <use xlink:href="#SegoeUI-13" transform="translate(129.5 0)"/>
       <use xlink:href="#SegoeUI-45" transform="translate(183.40625 0)"/>
       <use xlink:href="#SegoeUI-51" transform="translate(242.203125 0)"/>
      </g>
     </g>
    </g>
    <g id="xtick_4">
     <g id="line2d_7">
      <path d="M 290.91385 376.577207 
L 290.91385 28.21125 
" clip-path="url(#p073858f219)" style="fill: none; stroke: #e1e0d9; stroke-linecap: square"/>
     </g>
     <g id="line2d_8"/>
     <g id="text_4">
      <!-- 30.0bn -->
      <g style="fill: #52514e" transform="translate(277.467991 386.74002) scale(0.09 -0.09)">
       <defs>
        <path id="SegoeUI-16" d="M 2978 1269 
Q 2978 966 2864 717 
Q 2750 469 2542 292 
Q 2334 116 2043 19 
Q 1753 -78 1403 -78 
Q 763 -78 384 166 
L 384 716 
Q 838 359 1422 359 
Q 1656 359 1845 418 
Q 2034 478 2170 590 
Q 2306 703 2379 862 
Q 2453 1022 2453 1222 
Q 2453 2100 1203 2100 
L 831 2100 
L 831 2534 
L 1184 2534 
Q 2291 2534 2291 3359 
Q 2291 4122 1447 4122 
Q 972 4122 556 3803 
L 556 4300 
Q 984 4556 1575 4556 
Q 1856 4556 2084 4478 
Q 2313 4400 2475 4259 
Q 2638 4119 2727 3922 
Q 2816 3725 2816 3488 
Q 2816 2603 1922 2350 
L 1922 2338 
Q 2150 2313 2344 2227 
Q 2538 2141 2678 2003 
Q 2819 1866 2898 1680 
Q 2978 1494 2978 1269 
z
" transform="scale(0.015625)"/>
       </defs>
       <use xlink:href="#SegoeUI-16"/>
       <use xlink:href="#SegoeUI-13" transform="translate(53.90625 0)"/>
       <use xlink:href="#SegoeUI-11" transform="translate(107.8125 0)"/>
       <use xlink:href="#SegoeUI-13" transform="translate(129.5 0)"/>
       <use xlink:href="#SegoeUI-45" transform="translate(183.40625 0)"/>
       <use xlink:href="#SegoeUI-51" transform="translate(242.203125 0)"/>
      </g>
     </g>
    </g>
    <g id="xtick_5">
     <g id="line2d_9">
      <path d="M 349.228779 376.577207 
L 349.228779 28.21125 
" clip-path="url(#p073858f219)" style="fill: none; stroke: #e1e0d9; stroke-linecap: square"/>
     </g>
     <g id="line2d_10"/>
     <g id="text_5">
      <!-- 40.0bn -->
      <g style="fill: #52514e" transform="translate(335.78292 386.74002) scale(0.09 -0.09)">
       <defs>
        <path id="SegoeUI-17" d="M 2656 4481 
L 2656 1522 
L 3231 1522 
L 3231 1053 
L 2656 1053 
L 2656 0 
L 2150 0 
L 2150 1053 
L 44 1053 
L 44 1497 
Q 338 1828 638 2204 
Q 938 2581 1211 2968 
Q 1484 3356 1717 3742 
Q 1950 4128 2109 4481 
L 2656 4481 
z
M 622 1522 
L 2150 1522 
L 2150 3716 
Q 1916 3306 1706 2984 
Q 1497 2663 1308 2400 
Q 1119 2138 947 1925 
Q 775 1713 622 1522 
z
" transform="scale(0.015625)"/>
       </defs>
       <use xlink:href="#SegoeUI-17"/>
       <use xlink:href="#SegoeUI-13" transform="translate(53.90625 0)"/>
       <use xlink:href="#SegoeUI-11" transform="translate(107.8125 0)"/>
       <use xlink:href="#SegoeUI-13" transform="translate(129.5 0)"/>
       <use xlink:href="#SegoeUI-45" transform="translate(183.40625 0)"/>
       <use xlink:href="#SegoeUI-51" transform="translate(242.203125 0)"/>
      </g>
     </g>
    </g>
    <g id="xtick_6">
     <g id="line2d_11">
      <path d="M 407.543708 376.577207 
L 407.543708 28.21125 
" clip-path="url(#p073858f219)" style="fill: none; stroke: #e1e0d9; stroke-linecap: square"/>
     </g>
     <g id="line2d_12"/>
     <g id="text_6">
      <!-- 50.0bn -->
      <g style="fill: #52514e" transform="translate(394.097849 386.74002) scale(0.09 -0.09)">
       <defs>
        <path id="SegoeUI-18" d="M 3028 1369 
Q 3028 1041 2915 775 
Q 2803 509 2595 318 
Q 2388 128 2094 25 
Q 1800 -78 1441 -78 
Q 816 -78 513 109 
L 513 653 
Q 969 359 1447 359 
Q 1691 359 1886 431 
Q 2081 503 2218 631 
Q 2356 759 2429 940 
Q 2503 1122 2503 1338 
Q 2503 1775 2209 2023 
Q 1916 2272 1356 2272 
Q 1266 2272 1166 2269 
Q 1066 2266 966 2261 
Q 866 2256 770 2250 
Q 675 2244 597 2234 
L 750 4481 
L 2822 4481 
L 2822 4019 
L 1194 4019 
L 1103 2703 
Q 1203 2709 1315 2714 
Q 1428 2719 1516 2719 
Q 1872 2719 2153 2625 
Q 2434 2531 2629 2357 
Q 2825 2184 2926 1932 
Q 3028 1681 3028 1369 
z
" transform="scale(0.015625)"/>
       </defs>
       <use xlink:href="#SegoeUI-18"/>
       <use xlink:href="#SegoeUI-13" transform="translate(53.90625 0)"/>
       <use xlink:href="#SegoeUI-11" transform="translate(107.8125 0)"/>
       <use xlink:href="#SegoeUI-13" transform="translate(129.5 0)"/>
       <use xlink:href="#SegoeUI-45" transform="translate(183.40625 0)"/>
       <use xlink:href="#SegoeUI-51" transform="translate(242.203125 0)"/>
      </g>
     </g>
    </g>
    <g id="xtick_7">
     <g id="line2d_13">
      <path d="M 465.858638 376.577207 
L 465.858638 28.21125 
" clip-path="url(#p073858f219)" style="fill: none; stroke: #e1e0d9; stroke-linecap: square"/>
     </g>
     <g id="line2d_14"/>
     <g id="text_7">
      <!-- 60.0bn -->
      <g style="fill: #52514e" transform="translate(452.412778 386.74002) scale(0.09 -0.09)">
       <defs>
        <path id="SegoeUI-19" d="M 3194 1422 
Q 3194 1094 3087 819 
Q 2981 544 2793 344 
Q 2606 144 2347 33 
Q 2088 -78 1784 -78 
Q 1447 -78 1180 62 
Q 913 203 727 467 
Q 541 731 444 1112 
Q 347 1494 347 1972 
Q 347 2556 476 3032 
Q 606 3509 845 3848 
Q 1084 4188 1421 4372 
Q 1759 4556 2175 4556 
Q 2638 4556 2919 4428 
L 2919 3944 
Q 2572 4122 2188 4122 
Q 1888 4122 1647 3987 
Q 1406 3853 1234 3608 
Q 1063 3363 970 3016 
Q 878 2669 878 2244 
L 891 2244 
Q 1200 2803 1913 2803 
Q 2206 2803 2442 2703 
Q 2678 2603 2845 2420 
Q 3013 2238 3103 1984 
Q 3194 1731 3194 1422 
z
M 2669 1356 
Q 2669 1591 2609 1778 
Q 2550 1966 2439 2097 
Q 2328 2228 2165 2298 
Q 2003 2369 1797 2369 
Q 1606 2369 1443 2297 
Q 1281 2225 1162 2101 
Q 1044 1978 976 1814 
Q 909 1650 909 1466 
Q 909 1234 975 1032 
Q 1041 831 1159 681 
Q 1278 531 1442 445 
Q 1606 359 1806 359 
Q 2000 359 2159 432 
Q 2319 506 2431 637 
Q 2544 769 2606 951 
Q 2669 1134 2669 1356 
z
" transform="scale(0.015625)"/>
       </defs>
       <use xlink:href="#SegoeUI-19"/>
       <use xlink:href="#SegoeUI-13" transform="translate(53.90625 0)"/>
       <use xlink:href="#SegoeUI-11" transform="translate(107.8125 0)"/>
       <use xlink:href="#SegoeUI-13" transform="translate(129.5 0)"/>
       <use xlink:href="#SegoeUI-45" transform="translate(183.40625 0)"/>
       <use xlink:href="#SegoeUI-51" transform="translate(242.203125 0)"/>
      </g>
     </g>
    </g>
    <g id="xtick_8">
     <g id="line2d_15">
      <path d="M 524.173567 376.577207 
L 524.173567 28.21125 
" clip-path="url(#p073858f219)" style="fill: none; stroke: #e1e0d9; stroke-linecap: square"/>
     </g>
     <g id="line2d_16"/>
     <g id="text_8">
      <!-- 70.0bn -->
      <g style="fill: #52514e" transform="translate(510.727707 386.74002) scale(0.09 -0.09)">
       <defs>
        <path id="SegoeUI-1a" d="M 3156 4184 
Q 3053 4006 2908 3740 
Q 2763 3475 2600 3144 
Q 2438 2813 2269 2431 
Q 2100 2050 1953 1644 
Q 1806 1238 1695 820 
Q 1584 403 1534 0 
L 984 0 
Q 1041 400 1158 817 
Q 1275 1234 1423 1636 
Q 1572 2038 1737 2409 
Q 1903 2781 2059 3093 
Q 2216 3406 2345 3645 
Q 2475 3884 2553 4019 
L 306 4019 
L 306 4481 
L 3156 4481 
L 3156 4184 
z
" transform="scale(0.015625)"/>
       </defs>
       <use xlink:href="#SegoeUI-1a"/>
       <use xlink:href="#SegoeUI-13" transform="translate(53.90625 0)"/>
       <use xlink:href="#SegoeUI-11" transform="translate(107.8125 0)"/>
       <use xlink:href="#SegoeUI-13" transform="translate(129.5 0)"/>
       <use xlink:href="#SegoeUI-45" transform="translate(183.40625 0)"/>
       <use xlink:href="#SegoeUI-51" transform="translate(242.203125 0)"/>
      </g>
     </g>
    </g>
    <g id="xtick_9">
     <g id="line2d_17">
      <path d="M 582.488496 376.577207 
L 582.488496 28.21125 
" clip-path="url(#p073858f219)" style="fill: none; stroke: #e1e0d9; stroke-linecap: square"/>
     </g>
     <g id="line2d_18"/>
     <g id="text_9">
      <!-- 80.0bn -->
      <g style="fill: #52514e" transform="translate(569.042637 386.74002) scale(0.09 -0.09)">
       <defs>
        <path id="SegoeUI-1b" d="M 281 1250 
Q 281 1428 337 1608 
Q 394 1788 498 1944 
Q 603 2100 758 2228 
Q 913 2356 1109 2431 
Q 819 2594 647 2848 
Q 475 3103 475 3413 
Q 475 3659 570 3868 
Q 666 4078 834 4231 
Q 1003 4384 1234 4470 
Q 1466 4556 1734 4556 
Q 2006 4556 2237 4468 
Q 2469 4381 2637 4228 
Q 2806 4075 2900 3865 
Q 2994 3656 2994 3413 
Q 2994 3103 2822 2848 
Q 2650 2594 2366 2431 
Q 2559 2356 2712 2228 
Q 2866 2100 2970 1944 
Q 3075 1788 3131 1608 
Q 3188 1428 3188 1250 
Q 3188 956 3081 712 
Q 2975 469 2783 295 
Q 2591 122 2323 25 
Q 2056 -72 1734 -72 
Q 1416 -72 1150 25 
Q 884 122 690 295 
Q 497 469 389 712 
Q 281 956 281 1250 
z
M 838 1294 
Q 838 1084 902 915 
Q 966 747 1083 628 
Q 1200 509 1367 445 
Q 1534 381 1738 381 
Q 1934 381 2100 447 
Q 2266 513 2386 631 
Q 2506 750 2573 919 
Q 2641 1088 2641 1294 
Q 2641 1481 2577 1645 
Q 2513 1809 2394 1934 
Q 2275 2059 2109 2131 
Q 1944 2203 1738 2203 
Q 1544 2203 1380 2136 
Q 1216 2069 1095 1948 
Q 975 1828 906 1661 
Q 838 1494 838 1294 
z
M 997 3372 
Q 997 3213 1055 3077 
Q 1113 2941 1214 2839 
Q 1316 2738 1450 2680 
Q 1584 2622 1738 2622 
Q 1891 2622 2027 2681 
Q 2163 2741 2263 2842 
Q 2363 2944 2422 3080 
Q 2481 3216 2481 3372 
Q 2481 3534 2423 3671 
Q 2366 3809 2266 3909 
Q 2166 4009 2030 4067 
Q 1894 4125 1738 4125 
Q 1572 4125 1436 4065 
Q 1300 4006 1201 3904 
Q 1103 3803 1050 3665 
Q 997 3528 997 3372 
z
" transform="scale(0.015625)"/>
       </defs>
       <use xlink:href="#SegoeUI-1b"/>
       <use xlink:href="#SegoeUI-13" transform="translate(53.90625 0)"/>
       <use xlink:href="#SegoeUI-11" transform="translate(107.8125 0)"/>
       <use xlink:href="#SegoeUI-13" transform="translate(129.5 0)"/>
       <use xlink:href="#SegoeUI-45" transform="translate(183.40625 0)"/>
       <use xlink:href="#SegoeUI-51" transform="translate(242.203125 0)"/>
      </g>
     </g>
    </g>
   </g>
   <g id="matplotlib.axis_2">
    <g id="ytick_1">
     <g id="line2d_19"/>
     <g id="text_10">
      <!-- Mallow Trust -->
      <g style="fill: #52514e" transform="translate(62.181562 353.868406) scale(0.09 -0.09)">
       <defs>
        <path id="SegoeUI-30" d="M 5156 0 
L 4634 0 
L 4634 3006 
Q 4634 3363 4678 3878 
L 4666 3878 
Q 4591 3575 4531 3444 
L 3000 0 
L 2744 0 
L 1216 3419 
Q 1150 3569 1081 3878 
L 1069 3878 
Q 1094 3609 1094 3000 
L 1094 0 
L 588 0 
L 588 4481 
L 1281 4481 
L 2656 1356 
Q 2816 997 2863 819 
L 2881 819 
Q 3016 1188 3097 1369 
L 4500 4481 
L 5156 4481 
L 5156 0 
z
" transform="scale(0.015625)"/>
        <path id="SegoeUI-44" d="M 2809 0 
L 2297 0 
L 2297 500 
L 2284 500 
Q 1950 -75 1300 -75 
Q 822 -75 551 178 
Q 281 431 281 850 
Q 281 1747 1338 1894 
L 2297 2028 
Q 2297 2844 1638 2844 
Q 1059 2844 594 2450 
L 594 2975 
Q 1066 3275 1681 3275 
Q 2809 3275 2809 2081 
L 2809 0 
z
M 2297 1619 
L 1525 1513 
Q 1169 1463 987 1336 
Q 806 1209 806 888 
Q 806 653 973 504 
Q 1141 356 1419 356 
Q 1800 356 2048 623 
Q 2297 891 2297 1300 
L 2297 1619 
z
" transform="scale(0.015625)"/>
        <path id="SegoeUI-4f" d="M 1031 0 
L 519 0 
L 519 4738 
L 1031 4738 
L 1031 0 
z
" transform="scale(0.015625)"/>
        <path id="SegoeUI-52" d="M 1856 -75 
Q 1147 -75 723 373 
Q 300 822 300 1563 
Q 300 2369 740 2822 
Q 1181 3275 1931 3275 
Q 2647 3275 3048 2834 
Q 3450 2394 3450 1613 
Q 3450 847 3017 386 
Q 2584 -75 1856 -75 
z
M 1894 2844 
Q 1400 2844 1112 2508 
Q 825 2172 825 1581 
Q 825 1013 1115 684 
Q 1406 356 1894 356 
Q 2391 356 2658 678 
Q 2925 1000 2925 1594 
Q 2925 2194 2658 2519 
Q 2391 2844 1894 2844 
z
" transform="scale(0.015625)"/>
        <path id="SegoeUI-5a" d="M 4550 3200 
L 3591 0 
L 3059 0 
L 2400 2291 
Q 2363 2422 2350 2588 
L 2338 2588 
Q 2328 2475 2272 2297 
L 1556 0 
L 1044 0 
L 75 3200 
L 613 3200 
L 1275 794 
Q 1306 684 1319 506 
L 1344 506 
Q 1353 644 1400 800 
L 2138 3200 
L 2606 3200 
L 3269 788 
Q 3300 672 3316 500 
L 3341 500 
Q 3347 622 3394 788 
L 4044 3200 
L 4550 3200 
z
" transform="scale(0.015625)"/>
        <path id="SegoeUI-3" transform="scale(0.015625)"/>
        <path id="SegoeUI-37" d="M 3238 4006 
L 1944 4006 
L 1944 0 
L 1419 0 
L 1419 4006 
L 128 4006 
L 128 4481 
L 3238 4481 
L 3238 4006 
z
" transform="scale(0.015625)"/>
        <path id="SegoeUI-55" d="M 2188 2681 
Q 2053 2784 1800 2784 
Q 1472 2784 1251 2475 
Q 1031 2166 1031 1631 
L 1031 0 
L 519 0 
L 519 3200 
L 1031 3200 
L 1031 2541 
L 1044 2541 
Q 1153 2878 1378 3067 
Q 1603 3256 1881 3256 
Q 2081 3256 2188 3213 
L 2188 2681 
z
" transform="scale(0.015625)"/>
        <path id="SegoeUI-58" d="M 3106 0 
L 2594 0 
L 2594 506 
L 2581 506 
Q 2263 -75 1594 -75 
Q 450 -75 450 1288 
L 450 3200 
L 959 3200 
L 959 1369 
Q 959 356 1734 356 
Q 2109 356 2351 632 
Q 2594 909 2594 1356 
L 2594 3200 
L 3106 3200 
L 3106 0 
z
" transform="scale(0.015625)"/>
        <path id="SegoeUI-56" d="M 325 116 
L 325 666 
Q 744 356 1247 356 
Q 1922 356 1922 806 
Q 1922 934 1864 1023 
Q 1806 1113 1707 1181 
Q 1609 1250 1476 1304 
Q 1344 1359 1191 1419 
Q 978 1503 817 1589 
Q 656 1675 548 1783 
Q 441 1891 386 2028 
Q 331 2166 331 2350 
Q 331 2575 434 2748 
Q 538 2922 709 3039 
Q 881 3156 1101 3215 
Q 1322 3275 1556 3275 
Q 1972 3275 2300 3131 
L 2300 2613 
Q 1947 2844 1488 2844 
Q 1344 2844 1228 2811 
Q 1113 2778 1030 2718 
Q 947 2659 901 2576 
Q 856 2494 856 2394 
Q 856 2269 901 2184 
Q 947 2100 1034 2034 
Q 1122 1969 1247 1916 
Q 1372 1863 1531 1800 
Q 1744 1719 1912 1633 
Q 2081 1547 2200 1439 
Q 2319 1331 2383 1190 
Q 2447 1050 2447 856 
Q 2447 619 2342 444 
Q 2238 269 2063 153 
Q 1888 38 1659 -18 
Q 1431 -75 1181 -75 
Q 688 -75 325 116 
z
" transform="scale(0.015625)"/>
        <path id="SegoeUI-57" d="M 2003 31 
Q 1822 -69 1525 -69 
Q 684 -69 684 869 
L 684 2763 
L 134 2763 
L 134 3200 
L 684 3200 
L 684 3981 
L 1197 4147 
L 1197 3200 
L 2003 3200 
L 2003 2763 
L 1197 2763 
L 1197 959 
Q 1197 638 1306 500 
Q 1416 363 1669 363 
Q 1863 363 2003 469 
L 2003 31 
z
" transform="scale(0.015625)"/>
       </defs>
       <use xlink:href="#SegoeUI-30"/>
       <use xlink:href="#SegoeUI-44" transform="translate(89.796875 0)"/>
       <use xlink:href="#SegoeUI-4f" transform="translate(140.671875 0)"/>
       <use xlink:href="#SegoeUI-4f" transform="translate(164.890625 0)"/>
       <use xlink:href="#SegoeUI-52" transform="translate(189.109375 0)"/>
       <use xlink:href="#SegoeUI-5a" transform="translate(247.703125 0)"/>
       <use xlink:href="#SegoeUI-3" transform="translate(319.96875 0)"/>
       <use xlink:href="#SegoeUI-37" transform="translate(347.359375 0)"/>
       <use xlink:href="#SegoeUI-55" transform="translate(391.0625 0)"/>
       <use xlink:href="#SegoeUI-58" transform="translate(425.828125 0)"/>
       <use xlink:href="#SegoeUI-56" transform="translate(482.421875 0)"/>
       <use xlink:href="#SegoeUI-57" transform="translate(524.859375 0)"/>
      </g>
     </g>
    </g>
    <g id="ytick_2">
     <g id="line2d_20"/>
     <g id="text_11">
      <!-- Granite Bank -->
      <g style="fill: #52514e" transform="translate(61.786406 320.94779) scale(0.09 -0.09)">
       <defs>
        <path id="SegoeUI-2a" d="M 3938 306 
Q 3263 -75 2438 -75 
Q 1478 -75 886 544 
Q 294 1163 294 2181 
Q 294 3222 951 3889 
Q 1609 4556 2619 4556 
Q 3350 4556 3847 4319 
L 3847 3738 
Q 3303 4081 2559 4081 
Q 1806 4081 1325 3562 
Q 844 3044 844 2219 
Q 844 1369 1291 883 
Q 1738 397 2503 397 
Q 3028 397 3413 606 
L 3413 1863 
L 2431 1863 
L 2431 2338 
L 3938 2338 
L 3938 306 
z
" transform="scale(0.015625)"/>
        <path id="SegoeUI-4c" d="M 781 4013 
Q 644 4013 547 4106 
Q 450 4200 450 4344 
Q 450 4488 547 4583 
Q 644 4678 781 4678 
Q 922 4678 1020 4583 
Q 1119 4488 1119 4344 
Q 1119 4206 1020 4109 
Q 922 4013 781 4013 
z
M 1031 0 
L 519 0 
L 519 3200 
L 1031 3200 
L 1031 0 
z
" transform="scale(0.015625)"/>
        <path id="SegoeUI-48" d="M 3091 1472 
L 831 1472 
Q 844 938 1119 647 
Q 1394 356 1875 356 
Q 2416 356 2869 713 
L 2869 231 
Q 2447 -75 1753 -75 
Q 1075 -75 687 361 
Q 300 797 300 1588 
Q 300 2334 723 2804 
Q 1147 3275 1775 3275 
Q 2403 3275 2747 2869 
Q 3091 2463 3091 1741 
L 3091 1472 
z
M 2566 1906 
Q 2563 2350 2352 2597 
Q 2141 2844 1766 2844 
Q 1403 2844 1150 2584 
Q 897 2325 838 1906 
L 2566 1906 
z
" transform="scale(0.015625)"/>
        <path id="SegoeUI-25" d="M 588 0 
L 588 4481 
L 1863 4481 
Q 2444 4481 2784 4197 
Q 3125 3913 3125 3456 
Q 3125 3075 2919 2794 
Q 2713 2513 2350 2394 
L 2350 2381 
Q 2803 2328 3075 2039 
Q 3347 1750 3347 1288 
Q 3347 713 2934 356 
Q 2522 0 1894 0 
L 588 0 
z
M 1113 4006 
L 1113 2559 
L 1650 2559 
Q 2081 2559 2328 2767 
Q 2575 2975 2575 3353 
Q 2575 4006 1716 4006 
L 1113 4006 
z
M 1113 2088 
L 1113 475 
L 1825 475 
Q 2288 475 2542 694 
Q 2797 913 2797 1294 
Q 2797 2088 1716 2088 
L 1113 2088 
z
" transform="scale(0.015625)"/>
        <path id="SegoeUI-4e" d="M 3175 0 
L 2456 0 
L 1044 1538 
L 1031 1538 
L 1031 0 
L 519 0 
L 519 4738 
L 1031 4738 
L 1031 1734 
L 1044 1734 
L 2388 3200 
L 3059 3200 
L 1575 1656 
L 3175 0 
z
" transform="scale(0.015625)"/>
       </defs>
       <use xlink:href="#SegoeUI-2a"/>
       <use xlink:href="#SegoeUI-55" transform="translate(68.609375 0)"/>
       <use xlink:href="#SegoeUI-44" transform="translate(103.375 0)"/>
       <use xlink:href="#SegoeUI-51" transform="translate(154.25 0)"/>
       <use xlink:href="#SegoeUI-4c" transform="translate(210.84375 0)"/>
       <use xlink:href="#SegoeUI-57" transform="translate(235.0625 0)"/>
       <use xlink:href="#SegoeUI-48" transform="translate(268.953125 0)"/>
       <use xlink:href="#SegoeUI-3" transform="translate(321.25 0)"/>
       <use xlink:href="#SegoeUI-25" transform="translate(348.640625 0)"/>
       <use xlink:href="#SegoeUI-44" transform="translate(405.96875 0)"/>
       <use xlink:href="#SegoeUI-51" transform="translate(456.84375 0)"/>
       <use xlink:href="#SegoeUI-4e" transform="translate(513.4375 0)"/>
      </g>
     </g>
    </g>
    <g id="ytick_3">
     <g id="line2d_21"/>
     <g id="text_12">
      <!-- Vetchling Trust -->
      <g style="fill: #52514e" transform="translate(54.199687 288.027174) scale(0.09 -0.09)">
       <defs>
        <path id="SegoeUI-39" d="M 3919 4481 
L 2259 0 
L 1681 0 
L 56 4481 
L 641 4481 
L 1881 928 
Q 1941 756 1972 531 
L 1984 531 
Q 2009 719 2088 934 
L 3353 4481 
L 3919 4481 
z
" transform="scale(0.015625)"/>
        <path id="SegoeUI-46" d="M 2700 147 
Q 2331 -75 1825 -75 
Q 1141 -75 720 370 
Q 300 816 300 1525 
Q 300 2316 753 2795 
Q 1206 3275 1963 3275 
Q 2384 3275 2706 3119 
L 2706 2594 
Q 2350 2844 1944 2844 
Q 1453 2844 1139 2492 
Q 825 2141 825 1569 
Q 825 1006 1120 681 
Q 1416 356 1913 356 
Q 2331 356 2700 634 
L 2700 147 
z
" transform="scale(0.015625)"/>
        <path id="SegoeUI-4b" d="M 3175 0 
L 2663 0 
L 2663 1844 
Q 2663 2844 1919 2844 
Q 1544 2844 1287 2555 
Q 1031 2266 1031 1813 
L 1031 0 
L 519 0 
L 519 4738 
L 1031 4738 
L 1031 2669 
L 1044 2669 
Q 1413 3275 2094 3275 
Q 3175 3275 3175 1972 
L 3175 0 
z
" transform="scale(0.015625)"/>
        <path id="SegoeUI-4a" d="M 3250 256 
Q 3250 -1506 1563 -1506 
Q 969 -1506 525 -1281 
L 525 -769 
Q 1066 -1069 1556 -1069 
Q 2738 -1069 2738 188 
L 2738 538 
L 2725 538 
Q 2359 -75 1625 -75 
Q 1028 -75 664 351 
Q 300 778 300 1497 
Q 300 2313 692 2794 
Q 1084 3275 1766 3275 
Q 2413 3275 2725 2756 
L 2738 2756 
L 2738 3200 
L 3250 3200 
L 3250 256 
z
M 2738 1447 
L 2738 1919 
Q 2738 2300 2480 2572 
Q 2222 2844 1838 2844 
Q 1363 2844 1094 2498 
Q 825 2153 825 1531 
Q 825 997 1083 676 
Q 1341 356 1766 356 
Q 2197 356 2467 662 
Q 2738 969 2738 1447 
z
" transform="scale(0.015625)"/>
       </defs>
       <use xlink:href="#SegoeUI-39"/>
       <use xlink:href="#SegoeUI-48" transform="translate(55.765625 0)"/>
       <use xlink:href="#SegoeUI-57" transform="translate(108.0625 0)"/>
       <use xlink:href="#SegoeUI-46" transform="translate(141.953125 0)"/>
       <use xlink:href="#SegoeUI-4b" transform="translate(188.140625 0)"/>
       <use xlink:href="#SegoeUI-4f" transform="translate(244.734375 0)"/>
       <use xlink:href="#SegoeUI-4c" transform="translate(268.953125 0)"/>
       <use xlink:href="#SegoeUI-51" transform="translate(293.171875 0)"/>
       <use xlink:href="#SegoeUI-4a" transform="translate(349.765625 0)"/>
       <use xlink:href="#SegoeUI-3" transform="translate(408.65625 0)"/>
       <use xlink:href="#SegoeUI-37" transform="translate(436.046875 0)"/>
       <use xlink:href="#SegoeUI-55" transform="translate(479.75 0)"/>
       <use xlink:href="#SegoeUI-58" transform="translate(514.515625 0)"/>
       <use xlink:href="#SegoeUI-56" transform="translate(571.109375 0)"/>
       <use xlink:href="#SegoeUI-57" transform="translate(613.546875 0)"/>
      </g>
     </g>
    </g>
    <g id="ytick_4">
     <g id="line2d_22"/>
     <g id="text_13">
      <!-- Kestrel Settlement Bank -->
      <g style="fill: #52514e" transform="translate(18.46125 255.106559) scale(0.09 -0.09)">
       <defs>
        <path id="SegoeUI-2e" d="M 3706 0 
L 2975 0 
L 1244 2050 
Q 1147 2166 1125 2206 
L 1113 2206 
L 1113 0 
L 588 0 
L 588 4481 
L 1113 4481 
L 1113 2375 
L 1125 2375 
Q 1169 2444 1244 2528 
L 2919 4481 
L 3572 4481 
L 1650 2331 
L 3706 0 
z
" transform="scale(0.015625)"/>
        <path id="SegoeUI-36" d="M 378 181 
L 378 800 
Q 484 706 632 631 
Q 781 556 945 504 
Q 1109 453 1275 425 
Q 1441 397 1581 397 
Q 2066 397 2305 576 
Q 2544 756 2544 1094 
Q 2544 1275 2464 1409 
Q 2384 1544 2243 1655 
Q 2103 1766 1911 1867 
Q 1719 1969 1497 2081 
Q 1263 2200 1059 2322 
Q 856 2444 706 2591 
Q 556 2738 470 2923 
Q 384 3109 384 3359 
Q 384 3666 518 3892 
Q 653 4119 872 4266 
Q 1091 4413 1370 4484 
Q 1650 4556 1941 4556 
Q 2603 4556 2906 4397 
L 2906 3806 
Q 2509 4081 1888 4081 
Q 1716 4081 1544 4045 
Q 1372 4009 1237 3928 
Q 1103 3847 1018 3719 
Q 934 3591 934 3406 
Q 934 3234 998 3109 
Q 1063 2984 1188 2881 
Q 1313 2778 1492 2681 
Q 1672 2584 1906 2469 
Q 2147 2350 2362 2219 
Q 2578 2088 2740 1928 
Q 2903 1769 2998 1575 
Q 3094 1381 3094 1131 
Q 3094 800 2964 570 
Q 2834 341 2614 197 
Q 2394 53 2106 -11 
Q 1819 -75 1500 -75 
Q 1394 -75 1237 -58 
Q 1081 -41 918 -8 
Q 756 25 611 73 
Q 466 122 378 181 
z
" transform="scale(0.015625)"/>
        <path id="SegoeUI-50" d="M 5063 0 
L 4550 0 
L 4550 1838 
Q 4550 2369 4386 2606 
Q 4222 2844 3834 2844 
Q 3506 2844 3276 2544 
Q 3047 2244 3047 1825 
L 3047 0 
L 2534 0 
L 2534 1900 
Q 2534 2844 1806 2844 
Q 1469 2844 1250 2561 
Q 1031 2278 1031 1825 
L 1031 0 
L 519 0 
L 519 3200 
L 1031 3200 
L 1031 2694 
L 1044 2694 
Q 1384 3275 2038 3275 
Q 2366 3275 2609 3092 
Q 2853 2909 2944 2613 
Q 3300 3275 4006 3275 
Q 5063 3275 5063 1972 
L 5063 0 
z
" transform="scale(0.015625)"/>
       </defs>
       <use xlink:href="#SegoeUI-2e"/>
       <use xlink:href="#SegoeUI-48" transform="translate(56.703125 0)"/>
       <use xlink:href="#SegoeUI-56" transform="translate(109 0)"/>
       <use xlink:href="#SegoeUI-57" transform="translate(151.4375 0)"/>
       <use xlink:href="#SegoeUI-55" transform="translate(185.328125 0)"/>
       <use xlink:href="#SegoeUI-48" transform="translate(220.09375 0)"/>
       <use xlink:href="#SegoeUI-4f" transform="translate(272.390625 0)"/>
       <use xlink:href="#SegoeUI-3" transform="translate(296.609375 0)"/>
       <use xlink:href="#SegoeUI-36" transform="translate(324 0)"/>
       <use xlink:href="#SegoeUI-48" transform="translate(377.125 0)"/>
       <use xlink:href="#SegoeUI-57" transform="translate(429.421875 0)"/>
       <use xlink:href="#SegoeUI-57" transform="translate(463.3125 0)"/>
       <use xlink:href="#SegoeUI-4f" transform="translate(497.203125 0)"/>
       <use xlink:href="#SegoeUI-48" transform="translate(521.421875 0)"/>
       <use xlink:href="#SegoeUI-50" transform="translate(573.71875 0)"/>
       <use xlink:href="#SegoeUI-48" transform="translate(659.859375 0)"/>
       <use xlink:href="#SegoeUI-51" transform="translate(712.15625 0)"/>
       <use xlink:href="#SegoeUI-57" transform="translate(768.75 0)"/>
       <use xlink:href="#SegoeUI-3" transform="translate(802.640625 0)"/>
       <use xlink:href="#SegoeUI-25" transform="translate(830.03125 0)"/>
       <use xlink:href="#SegoeUI-44" transform="translate(887.359375 0)"/>
       <use xlink:href="#SegoeUI-51" transform="translate(938.234375 0)"/>
       <use xlink:href="#SegoeUI-4e" transform="translate(994.828125 0)"/>
      </g>
     </g>
    </g>
    <g id="ytick_5">
     <g id="line2d_23"/>
     <g id="text_14">
      <!-- Larkspur Commercial Bank -->
      <g style="fill: #52514e" transform="translate(7.2 222.185943) scale(0.09 -0.09)">
       <defs>
        <path id="SegoeUI-2f" d="M 2913 0 
L 588 0 
L 588 4481 
L 1113 4481 
L 1113 475 
L 2913 475 
L 2913 0 
z
" transform="scale(0.015625)"/>
        <path id="SegoeUI-53" d="M 1044 463 
L 1031 463 
L 1031 -1472 
L 519 -1472 
L 519 3200 
L 1031 3200 
L 1031 2638 
L 1044 2638 
Q 1422 3275 2150 3275 
Q 2769 3275 3116 2845 
Q 3463 2416 3463 1694 
Q 3463 891 3072 408 
Q 2681 -75 2003 -75 
Q 1381 -75 1044 463 
z
M 1031 1753 
L 1031 1306 
Q 1031 909 1289 632 
Q 1547 356 1944 356 
Q 2409 356 2673 712 
Q 2938 1069 2938 1703 
Q 2938 2238 2691 2541 
Q 2444 2844 2022 2844 
Q 1575 2844 1303 2533 
Q 1031 2222 1031 1753 
z
" transform="scale(0.015625)"/>
        <path id="SegoeUI-26" d="M 3638 188 
Q 3141 -75 2400 -75 
Q 1444 -75 869 540 
Q 294 1156 294 2156 
Q 294 3231 941 3893 
Q 1588 4556 2581 4556 
Q 3219 4556 3638 4372 
L 3638 3813 
Q 3156 4081 2575 4081 
Q 1803 4081 1323 3565 
Q 844 3050 844 2188 
Q 844 1369 1292 883 
Q 1741 397 2469 397 
Q 3144 397 3638 697 
L 3638 188 
z
" transform="scale(0.015625)"/>
       </defs>
       <use xlink:href="#SegoeUI-2f"/>
       <use xlink:href="#SegoeUI-44" transform="translate(47.078125 0)"/>
       <use xlink:href="#SegoeUI-55" transform="translate(97.953125 0)"/>
       <use xlink:href="#SegoeUI-4e" transform="translate(132.71875 0)"/>
       <use xlink:href="#SegoeUI-56" transform="translate(182.421875 0)"/>
       <use xlink:href="#SegoeUI-53" transform="translate(224.859375 0)"/>
       <use xlink:href="#SegoeUI-58" transform="translate(283.65625 0)"/>
       <use xlink:href="#SegoeUI-55" transform="translate(340.25 0)"/>
       <use xlink:href="#SegoeUI-3" transform="translate(375.015625 0)"/>
       <use xlink:href="#SegoeUI-26" transform="translate(402.40625 0)"/>
       <use xlink:href="#SegoeUI-52" transform="translate(464.328125 0)"/>
       <use xlink:href="#SegoeUI-50" transform="translate(522.921875 0)"/>
       <use xlink:href="#SegoeUI-50" transform="translate(609.0625 0)"/>
       <use xlink:href="#SegoeUI-48" transform="translate(695.203125 0)"/>
       <use xlink:href="#SegoeUI-55" transform="translate(747.5 0)"/>
       <use xlink:href="#SegoeUI-46" transform="translate(782.265625 0)"/>
       <use xlink:href="#SegoeUI-4c" transform="translate(828.453125 0)"/>
       <use xlink:href="#SegoeUI-44" transform="translate(852.671875 0)"/>
       <use xlink:href="#SegoeUI-4f" transform="translate(903.546875 0)"/>
       <use xlink:href="#SegoeUI-3" transform="translate(927.765625 0)"/>
       <use xlink:href="#SegoeUI-25" transform="translate(955.15625 0)"/>
       <use xlink:href="#SegoeUI-44" transform="translate(1012.484375 0)"/>
       <use xlink:href="#SegoeUI-51" transform="translate(1063.359375 0)"/>
       <use xlink:href="#SegoeUI-4e" transform="translate(1119.953125 0)"/>
      </g>
     </g>
    </g>
    <g id="ytick_6">
     <g id="line2d_24"/>
     <g id="text_15">
      <!-- Wrenfield Trust -->
      <g style="fill: #52514e" transform="translate(52.460156 189.313139) scale(0.09 -0.09)">
       <defs>
        <path id="SegoeUI-3a" d="M 5900 4481 
L 4634 0 
L 4019 0 
L 3097 3275 
Q 3038 3484 3025 3731 
L 3013 3731 
Q 2994 3500 2931 3281 
L 2003 0 
L 1394 0 
L 81 4481 
L 659 4481 
L 1613 1044 
Q 1672 828 1688 594 
L 1703 594 
Q 1719 759 1800 1044 
L 2791 4481 
L 3294 4481 
L 4244 1019 
Q 4294 841 4319 600 
L 4331 600 
Q 4344 763 4416 1031 
L 5331 4481 
L 5900 4481 
z
" transform="scale(0.015625)"/>
        <path id="SegoeUI-49" d="M 2100 4288 
Q 1950 4372 1759 4372 
Q 1222 4372 1222 3694 
L 1222 3200 
L 1972 3200 
L 1972 2763 
L 1222 2763 
L 1222 0 
L 713 0 
L 713 2763 
L 166 2763 
L 166 3200 
L 713 3200 
L 713 3719 
Q 713 4222 1003 4514 
Q 1294 4806 1728 4806 
Q 1963 4806 2100 4750 
L 2100 4288 
z
" transform="scale(0.015625)"/>
        <path id="SegoeUI-47" d="M 3250 0 
L 2738 0 
L 2738 544 
L 2725 544 
Q 2369 -75 1625 -75 
Q 1022 -75 661 354 
Q 300 784 300 1525 
Q 300 2319 700 2797 
Q 1100 3275 1766 3275 
Q 2425 3275 2725 2756 
L 2738 2756 
L 2738 4738 
L 3250 4738 
L 3250 0 
z
M 2738 1447 
L 2738 1919 
Q 2738 2306 2481 2575 
Q 2225 2844 1831 2844 
Q 1363 2844 1094 2500 
Q 825 2156 825 1550 
Q 825 997 1083 676 
Q 1341 356 1775 356 
Q 2203 356 2470 665 
Q 2738 975 2738 1447 
z
" transform="scale(0.015625)"/>
       </defs>
       <use xlink:href="#SegoeUI-3a"/>
       <use xlink:href="#SegoeUI-55" transform="translate(93.40625 0)"/>
       <use xlink:href="#SegoeUI-48" transform="translate(128.171875 0)"/>
       <use xlink:href="#SegoeUI-51" transform="translate(180.46875 0)"/>
       <use xlink:href="#SegoeUI-49" transform="translate(237.0625 0)"/>
       <use xlink:href="#SegoeUI-4c" transform="translate(268.359375 0)"/>
       <use xlink:href="#SegoeUI-48" transform="translate(292.578125 0)"/>
       <use xlink:href="#SegoeUI-4f" transform="translate(344.875 0)"/>
       <use xlink:href="#SegoeUI-47" transform="translate(369.09375 0)"/>
       <use xlink:href="#SegoeUI-3" transform="translate(427.984375 0)"/>
       <use xlink:href="#SegoeUI-37" transform="translate(455.375 0)"/>
       <use xlink:href="#SegoeUI-55" transform="translate(499.078125 0)"/>
       <use xlink:href="#SegoeUI-58" transform="translate(533.84375 0)"/>
       <use xlink:href="#SegoeUI-56" transform="translate(590.4375 0)"/>
       <use xlink:href="#SegoeUI-57" transform="translate(632.875 0)"/>
      </g>
     </g>
    </g>
    <g id="ytick_7">
     <g id="line2d_25"/>
     <g id="text_16">
      <!-- Ironbark Settlement Bank -->
      <g style="fill: #52514e" transform="translate(11.792812 156.344711) scale(0.09 -0.09)">
       <defs>
        <path id="SegoeUI-2c" d="M 1113 0 
L 588 0 
L 588 4481 
L 1113 4481 
L 1113 0 
z
" transform="scale(0.015625)"/>
       </defs>
       <use xlink:href="#SegoeUI-2c"/>
       <use xlink:href="#SegoeUI-55" transform="translate(26.609375 0)"/>
       <use xlink:href="#SegoeUI-52" transform="translate(61.375 0)"/>
       <use xlink:href="#SegoeUI-51" transform="translate(119.96875 0)"/>
       <use xlink:href="#SegoeUI-45" transform="translate(176.5625 0)"/>
       <use xlink:href="#SegoeUI-44" transform="translate(235.359375 0)"/>
       <use xlink:href="#SegoeUI-55" transform="translate(286.234375 0)"/>
       <use xlink:href="#SegoeUI-4e" transform="translate(321 0)"/>
       <use xlink:href="#SegoeUI-3" transform="translate(370.703125 0)"/>
       <use xlink:href="#SegoeUI-36" transform="translate(398.09375 0)"/>
       <use xlink:href="#SegoeUI-48" transform="translate(451.21875 0)"/>
       <use xlink:href="#SegoeUI-57" transform="translate(503.515625 0)"/>
       <use xlink:href="#SegoeUI-57" transform="translate(537.40625 0)"/>
       <use xlink:href="#SegoeUI-4f" transform="translate(571.296875 0)"/>
       <use xlink:href="#SegoeUI-48" transform="translate(595.515625 0)"/>
       <use xlink:href="#SegoeUI-50" transform="translate(647.8125 0)"/>
       <use xlink:href="#SegoeUI-48" transform="translate(733.953125 0)"/>
       <use xlink:href="#SegoeUI-51" transform="translate(786.25 0)"/>
       <use xlink:href="#SegoeUI-57" transform="translate(842.84375 0)"/>
       <use xlink:href="#SegoeUI-3" transform="translate(876.734375 0)"/>
       <use xlink:href="#SegoeUI-25" transform="translate(904.125 0)"/>
       <use xlink:href="#SegoeUI-44" transform="translate(961.453125 0)"/>
       <use xlink:href="#SegoeUI-51" transform="translate(1012.328125 0)"/>
       <use xlink:href="#SegoeUI-4e" transform="translate(1068.921875 0)"/>
      </g>
     </g>
    </g>
    <g id="ytick_8">
     <g id="line2d_26"/>
     <g id="text_17">
      <!-- Kestrel Trust -->
      <g style="fill: #52514e" transform="translate(64.283906 123.424095) scale(0.09 -0.09)">
       <use xlink:href="#SegoeUI-2e"/>
       <use xlink:href="#SegoeUI-48" transform="translate(56.703125 0)"/>
       <use xlink:href="#SegoeUI-56" transform="translate(109 0)"/>
       <use xlink:href="#SegoeUI-57" transform="translate(151.4375 0)"/>
       <use xlink:href="#SegoeUI-55" transform="translate(185.328125 0)"/>
       <use xlink:href="#SegoeUI-48" transform="translate(220.09375 0)"/>
       <use xlink:href="#SegoeUI-4f" transform="translate(272.390625 0)"/>
       <use xlink:href="#SegoeUI-3" transform="translate(296.609375 0)"/>
       <use xlink:href="#SegoeUI-37" transform="translate(324 0)"/>
       <use xlink:href="#SegoeUI-55" transform="translate(367.703125 0)"/>
       <use xlink:href="#SegoeUI-58" transform="translate(402.46875 0)"/>
       <use xlink:href="#SegoeUI-56" transform="translate(459.0625 0)"/>
       <use xlink:href="#SegoeUI-57" transform="translate(501.5 0)"/>
      </g>
     </g>
    </g>
    <g id="ytick_9">
     <g id="line2d_27"/>
     <g id="text_18">
      <!-- Zephyr Settlement Bank -->
      <g style="fill: #52514e" transform="translate(17.447344 90.503479) scale(0.09 -0.09)">
       <defs>
        <path id="SegoeUI-3d" d="M 3513 4356 
L 888 475 
L 3450 475 
L 3450 0 
L 103 0 
L 103 147 
L 2706 4006 
L 313 4006 
L 313 4481 
L 3513 4481 
L 3513 4356 
z
" transform="scale(0.015625)"/>
        <path id="SegoeUI-5c" d="M 3066 3200 
L 1594 -513 
Q 1200 -1506 488 -1506 
Q 288 -1506 153 -1466 
L 153 -1006 
Q 319 -1063 456 -1063 
Q 844 -1063 1038 -600 
L 1294 6 
L 44 3200 
L 613 3200 
L 1478 738 
Q 1494 691 1544 494 
L 1563 494 
Q 1578 569 1625 731 
L 2534 3200 
L 3066 3200 
z
" transform="scale(0.015625)"/>
       </defs>
       <use xlink:href="#SegoeUI-3d"/>
       <use xlink:href="#SegoeUI-48" transform="translate(57.03125 0)"/>
       <use xlink:href="#SegoeUI-53" transform="translate(109.328125 0)"/>
       <use xlink:href="#SegoeUI-4b" transform="translate(168.125 0)"/>
       <use xlink:href="#SegoeUI-5c" transform="translate(224.71875 0)"/>
       <use xlink:href="#SegoeUI-55" transform="translate(273.109375 0)"/>
       <use xlink:href="#SegoeUI-3" transform="translate(307.875 0)"/>
       <use xlink:href="#SegoeUI-36" transform="translate(335.265625 0)"/>
       <use xlink:href="#SegoeUI-48" transform="translate(388.390625 0)"/>
       <use xlink:href="#SegoeUI-57" transform="translate(440.6875 0)"/>
       <use xlink:href="#SegoeUI-57" transform="translate(474.578125 0)"/>
       <use xlink:href="#SegoeUI-4f" transform="translate(508.46875 0)"/>
       <use xlink:href="#SegoeUI-48" transform="translate(532.6875 0)"/>
       <use xlink:href="#SegoeUI-50" transform="translate(584.984375 0)"/>
       <use xlink:href="#SegoeUI-48" transform="translate(671.125 0)"/>
       <use xlink:href="#SegoeUI-51" transform="translate(723.421875 0)"/>
       <use xlink:href="#SegoeUI-57" transform="translate(780.015625 0)"/>
       <use xlink:href="#SegoeUI-3" transform="translate(813.90625 0)"/>
       <use xlink:href="#SegoeUI-25" transform="translate(841.296875 0)"/>
       <use xlink:href="#SegoeUI-44" transform="translate(898.625 0)"/>
       <use xlink:href="#SegoeUI-51" transform="translate(949.5 0)"/>
       <use xlink:href="#SegoeUI-4e" transform="translate(1006.09375 0)"/>
      </g>
     </g>
    </g>
    <g id="ytick_10">
     <g id="line2d_28"/>
     <g id="text_19">
      <!-- Nightjar Trust -->
      <g style="fill: #52514e" transform="translate(58.734844 57.582863) scale(0.09 -0.09)">
       <defs>
        <path id="SegoeUI-31" d="M 4200 0 
L 3556 0 
L 1250 3572 
Q 1163 3706 1106 3853 
L 1088 3853 
Q 1113 3709 1113 3238 
L 1113 0 
L 588 0 
L 588 4481 
L 1269 4481 
L 3513 966 
Q 3653 747 3694 666 
L 3706 666 
Q 3675 859 3675 1325 
L 3675 4481 
L 4200 4481 
L 4200 0 
z
" transform="scale(0.015625)"/>
        <path id="SegoeUI-4d" d="M 1031 134 
Q 1031 -653 714 -1079 
Q 397 -1506 -194 -1506 
Q -413 -1506 -619 -1406 
L -619 -928 
Q -388 -1069 -181 -1069 
Q 519 -1069 519 50 
L 519 3200 
L 1031 3200 
L 1031 134 
z
M 781 4013 
Q 644 4013 547 4106 
Q 450 4200 450 4344 
Q 450 4488 547 4583 
Q 644 4678 781 4678 
Q 922 4678 1020 4583 
Q 1119 4488 1119 4344 
Q 1119 4206 1020 4109 
Q 922 4013 781 4013 
z
" transform="scale(0.015625)"/>
       </defs>
       <use xlink:href="#SegoeUI-31"/>
       <use xlink:href="#SegoeUI-4c" transform="translate(74.8125 0)"/>
       <use xlink:href="#SegoeUI-4a" transform="translate(99.03125 0)"/>
       <use xlink:href="#SegoeUI-4b" transform="translate(157.921875 0)"/>
       <use xlink:href="#SegoeUI-57" transform="translate(214.515625 0)"/>
       <use xlink:href="#SegoeUI-4d" transform="translate(248.40625 0)"/>
       <use xlink:href="#SegoeUI-44" transform="translate(272.625 0)"/>
       <use xlink:href="#SegoeUI-55" transform="translate(323.5 0)"/>
       <use xlink:href="#SegoeUI-3" transform="translate(358.265625 0)"/>
       <use xlink:href="#SegoeUI-37" transform="translate(385.65625 0)"/>
       <use xlink:href="#SegoeUI-55" transform="translate(429.359375 0)"/>
       <use xlink:href="#SegoeUI-58" transform="translate(464.125 0)"/>
       <use xlink:href="#SegoeUI-56" transform="translate(520.71875 0)"/>
       <use xlink:href="#SegoeUI-57" transform="translate(563.15625 0)"/>
      </g>
     </g>
    </g>
   </g>
   <g id="patch_3">
    <path d="M 115.969062 360.742391 
L 159.440905 360.742391 
L 159.440905 340.331609 
L 115.969062 340.331609 
z
" clip-path="url(#p073858f219)" style="fill: #8a15e0"/>
   </g>
   <g id="patch_4">
    <path d="M 115.969062 327.821775 
L 170.586233 327.821775 
L 170.586233 307.410993 
L 115.969062 307.410993 
z
" clip-path="url(#p073858f219)" style="fill: #8a15e0"/>
   </g>
   <g id="patch_5">
    <path d="M 115.969062 294.901159 
L 197.27172 294.901159 
L 197.27172 274.490377 
L 115.969062 274.490377 
z
" clip-path="url(#p073858f219)" style="fill: #8a15e0"/>
   </g>
   <g id="patch_6">
    <path d="M 115.969062 261.980543 
L 202.581964 261.980543 
L 202.581964 241.569761 
L 115.969062 241.569761 
z
" clip-path="url(#p073858f219)" style="fill: #8a15e0"/>
   </g>
   <g id="patch_7">
    <path d="M 115.969062 229.059927 
L 210.558675 229.059927 
L 210.558675 208.649146 
L 115.969062 208.649146 
z
" clip-path="url(#p073858f219)" style="fill: #8a15e0"/>
   </g>
   <g id="patch_8">
    <path d="M 115.969062 196.139312 
L 223.805631 196.139312 
L 223.805631 175.72853 
L 115.969062 175.72853 
z
" clip-path="url(#p073858f219)" style="fill: #8a15e0"/>
   </g>
   <g id="patch_9">
    <path d="M 115.969062 163.218696 
L 300.270273 163.218696 
L 300.270273 142.807914 
L 115.969062 142.807914 
z
" clip-path="url(#p073858f219)" style="fill: #8a15e0"/>
   </g>
   <g id="patch_10">
    <path d="M 115.969062 130.29808 
L 394.531276 130.29808 
L 394.531276 109.887298 
L 115.969062 109.887298 
z
" clip-path="url(#p073858f219)" style="fill: #8a15e0"/>
   </g>
   <g id="patch_11">
    <path d="M 115.969062 97.377464 
L 431.50137 97.377464 
L 431.50137 76.966682 
L 115.969062 76.966682 
z
" clip-path="url(#p073858f219)" style="fill: #8a15e0"/>
   </g>
   <g id="patch_12">
    <path d="M 115.969062 64.456848 
L 547.631552 64.456848 
L 547.631552 44.046066 
L 115.969062 44.046066 
z
" clip-path="url(#p073858f219)" style="fill: #8a15e0"/>
   </g>
   <g id="patch_13">
    <path d="M 115.969062 376.577207 
L 115.969062 28.21125 
" style="fill: none; stroke: #c3c2b7; stroke-linejoin: miter; stroke-linecap: square"/>
   </g>
   <g id="patch_14">
    <path d="M 115.969062 376.577207 
L 632.669062 376.577207 
" style="fill: none; stroke: #c3c2b7; stroke-linejoin: miter; stroke-linecap: square"/>
   </g>
   <g id="text_20">
    <!-- 7.5bn -->
    <g style="fill: #52514e" transform="translate(164.620855 352.788919) scale(0.085 -0.085)">
     <use xlink:href="#SegoeUI-1a"/>
     <use xlink:href="#SegoeUI-11" transform="translate(53.90625 0)"/>
     <use xlink:href="#SegoeUI-18" transform="translate(75.59375 0)"/>
     <use xlink:href="#SegoeUI-45" transform="translate(129.5 0)"/>
     <use xlink:href="#SegoeUI-51" transform="translate(188.296875 0)"/>
    </g>
   </g>
   <g id="text_21">
    <!-- 9.4bn -->
    <g style="fill: #52514e" transform="translate(175.766183 319.868303) scale(0.085 -0.085)">
     <defs>
      <path id="SegoeUI-1c" d="M 3138 2509 
Q 3138 1894 3016 1414 
Q 2894 934 2659 601 
Q 2425 269 2087 95 
Q 1750 -78 1319 -78 
Q 875 -78 538 78 
L 538 569 
Q 909 359 1331 359 
Q 1634 359 1873 484 
Q 2113 609 2278 848 
Q 2444 1088 2531 1438 
Q 2619 1788 2619 2241 
L 2606 2241 
Q 2319 1663 1606 1663 
Q 1319 1663 1078 1764 
Q 838 1866 663 2052 
Q 488 2238 391 2494 
Q 294 2750 294 3059 
Q 294 3391 401 3666 
Q 509 3941 701 4139 
Q 894 4338 1158 4447 
Q 1422 4556 1734 4556 
Q 2072 4556 2333 4420 
Q 2594 4284 2772 4023 
Q 2950 3763 3044 3381 
Q 3138 3000 3138 2509 
z
M 2584 2969 
Q 2584 3228 2517 3440 
Q 2450 3653 2331 3804 
Q 2213 3956 2048 4039 
Q 1884 4122 1691 4122 
Q 1506 4122 1347 4048 
Q 1188 3975 1070 3842 
Q 953 3709 886 3526 
Q 819 3344 819 3128 
Q 819 2891 883 2703 
Q 947 2516 1065 2386 
Q 1184 2256 1351 2187 
Q 1519 2119 1722 2119 
Q 1900 2119 2058 2186 
Q 2216 2253 2333 2367 
Q 2450 2481 2517 2636 
Q 2584 2791 2584 2969 
z
" transform="scale(0.015625)"/>
     </defs>
     <use xlink:href="#SegoeUI-1c"/>
     <use xlink:href="#SegoeUI-11" transform="translate(53.90625 0)"/>
     <use xlink:href="#SegoeUI-17" transform="translate(75.59375 0)"/>
     <use xlink:href="#SegoeUI-45" transform="translate(129.5 0)"/>
     <use xlink:href="#SegoeUI-51" transform="translate(188.296875 0)"/>
    </g>
   </g>
   <g id="text_22">
    <!-- 13.9bn -->
    <g style="fill: #52514e" transform="translate(202.45167 286.947687) scale(0.085 -0.085)">
     <use xlink:href="#SegoeUI-14"/>
     <use xlink:href="#SegoeUI-16" transform="translate(53.90625 0)"/>
     <use xlink:href="#SegoeUI-11" transform="translate(107.8125 0)"/>
     <use xlink:href="#SegoeUI-1c" transform="translate(129.5 0)"/>
     <use xlink:href="#SegoeUI-45" transform="translate(183.40625 0)"/>
     <use xlink:href="#SegoeUI-51" transform="translate(242.203125 0)"/>
    </g>
   </g>
   <g id="text_23">
    <!-- 14.9bn -->
    <g style="fill: #52514e" transform="translate(207.761914 254.027071) scale(0.085 -0.085)">
     <use xlink:href="#SegoeUI-14"/>
     <use xlink:href="#SegoeUI-17" transform="translate(53.90625 0)"/>
     <use xlink:href="#SegoeUI-11" transform="translate(107.8125 0)"/>
     <use xlink:href="#SegoeUI-1c" transform="translate(129.5 0)"/>
     <use xlink:href="#SegoeUI-45" transform="translate(183.40625 0)"/>
     <use xlink:href="#SegoeUI-51" transform="translate(242.203125 0)"/>
    </g>
   </g>
   <g id="text_24">
    <!-- 16.2bn -->
    <g style="fill: #52514e" transform="translate(215.738625 221.106455) scale(0.085 -0.085)">
     <use xlink:href="#SegoeUI-14"/>
     <use xlink:href="#SegoeUI-19" transform="translate(53.90625 0)"/>
     <use xlink:href="#SegoeUI-11" transform="translate(107.8125 0)"/>
     <use xlink:href="#SegoeUI-15" transform="translate(129.5 0)"/>
     <use xlink:href="#SegoeUI-45" transform="translate(183.40625 0)"/>
     <use xlink:href="#SegoeUI-51" transform="translate(242.203125 0)"/>
    </g>
   </g>
   <g id="text_25">
    <!-- 18.5bn -->
    <g style="fill: #52514e" transform="translate(228.985581 188.18584) scale(0.085 -0.085)">
     <use xlink:href="#SegoeUI-14"/>
     <use xlink:href="#SegoeUI-1b" transform="translate(53.90625 0)"/>
     <use xlink:href="#SegoeUI-11" transform="translate(107.8125 0)"/>
     <use xlink:href="#SegoeUI-18" transform="translate(129.5 0)"/>
     <use xlink:href="#SegoeUI-45" transform="translate(183.40625 0)"/>
     <use xlink:href="#SegoeUI-51" transform="translate(242.203125 0)"/>
    </g>
   </g>
   <g id="text_26">
    <!-- 31.6bn -->
    <g style="fill: #52514e" transform="translate(305.450223 155.265224) scale(0.085 -0.085)">
     <use xlink:href="#SegoeUI-16"/>
     <use xlink:href="#SegoeUI-14" transform="translate(53.90625 0)"/>
     <use xlink:href="#SegoeUI-11" transform="translate(107.8125 0)"/>
     <use xlink:href="#SegoeUI-19" transform="translate(129.5 0)"/>
     <use xlink:href="#SegoeUI-45" transform="translate(183.40625 0)"/>
     <use xlink:href="#SegoeUI-51" transform="translate(242.203125 0)"/>
    </g>
   </g>
   <g id="text_27">
    <!-- 47.8bn -->
    <g style="fill: #52514e" transform="translate(399.711226 122.344608) scale(0.085 -0.085)">
     <use xlink:href="#SegoeUI-17"/>
     <use xlink:href="#SegoeUI-1a" transform="translate(53.90625 0)"/>
     <use xlink:href="#SegoeUI-11" transform="translate(107.8125 0)"/>
     <use xlink:href="#SegoeUI-1b" transform="translate(129.5 0)"/>
     <use xlink:href="#SegoeUI-45" transform="translate(183.40625 0)"/>
     <use xlink:href="#SegoeUI-51" transform="translate(242.203125 0)"/>
    </g>
   </g>
   <g id="text_28">
    <!-- 54.1bn -->
    <g style="fill: #52514e" transform="translate(436.68132 89.423992) scale(0.085 -0.085)">
     <use xlink:href="#SegoeUI-18"/>
     <use xlink:href="#SegoeUI-17" transform="translate(53.90625 0)"/>
     <use xlink:href="#SegoeUI-11" transform="translate(107.8125 0)"/>
     <use xlink:href="#SegoeUI-14" transform="translate(129.5 0)"/>
     <use xlink:href="#SegoeUI-45" transform="translate(183.40625 0)"/>
     <use xlink:href="#SegoeUI-51" transform="translate(242.203125 0)"/>
    </g>
   </g>
   <g id="text_29">
    <!-- 74.0bn -->
    <g style="fill: #52514e" transform="translate(552.811502 56.503376) scale(0.085 -0.085)">
     <use xlink:href="#SegoeUI-1a"/>
     <use xlink:href="#SegoeUI-17" transform="translate(53.90625 0)"/>
     <use xlink:href="#SegoeUI-11" transform="translate(107.8125 0)"/>
     <use xlink:href="#SegoeUI-13" transform="translate(129.5 0)"/>
     <use xlink:href="#SegoeUI-45" transform="translate(183.40625 0)"/>
     <use xlink:href="#SegoeUI-51" transform="translate(242.203125 0)"/>
    </g>
   </g>
   <g id="text_30">
    <!-- Sum of Amount (Display) by Counterparty -->
    <g style="fill: #0b0b0b" transform="translate(115.969062 16.21125) scale(0.12 -0.12)">
     <defs>
      <path id="SegoeUI-24" d="M 4056 0 
L 3475 0 
L 3000 1256 
L 1100 1256 
L 653 0 
L 69 0 
L 1788 4481 
L 2331 4481 
L 4056 0 
z
M 2828 1728 
L 2125 3638 
Q 2091 3731 2056 3938 
L 2044 3938 
Q 2013 3747 1972 3638 
L 1275 1728 
L 2828 1728 
z
" transform="scale(0.015625)"/>
      <path id="SegoeUI-b" d="M 1863 -1019 
L 1406 -1019 
Q 438 88 438 1709 
Q 438 3338 1406 4481 
L 1869 4481 
Q 888 3294 888 1716 
Q 888 150 1863 -1019 
z
" transform="scale(0.015625)"/>
      <path id="SegoeUI-27" d="M 588 0 
L 588 4481 
L 1825 4481 
Q 4194 4481 4194 2297 
Q 4194 1259 3536 629 
Q 2878 0 1775 0 
L 588 0 
z
M 1113 4006 
L 1113 475 
L 1781 475 
Q 2663 475 3153 947 
Q 3644 1419 3644 2284 
Q 3644 4006 1813 4006 
L 1113 4006 
z
" transform="scale(0.015625)"/>
      <path id="SegoeUI-c" d="M 531 -1019 
L 75 -1019 
Q 1050 150 1050 1716 
Q 1050 3294 69 4481 
L 531 4481 
Q 1506 3338 1506 1709 
Q 1506 88 531 -1019 
z
" transform="scale(0.015625)"/>
     </defs>
     <use xlink:href="#SegoeUI-36"/>
     <use xlink:href="#SegoeUI-58" transform="translate(53.125 0)"/>
     <use xlink:href="#SegoeUI-50" transform="translate(109.71875 0)"/>
     <use xlink:href="#SegoeUI-3" transform="translate(195.859375 0)"/>
     <use xlink:href="#SegoeUI-52" transform="translate(223.25 0)"/>
     <use xlink:href="#SegoeUI-49" transform="translate(281.84375 0)"/>
     <use xlink:href="#SegoeUI-3" transform="translate(313.140625 0)"/>
     <use xlink:href="#SegoeUI-24" transform="translate(340.53125 0)"/>
     <use xlink:href="#SegoeUI-50" transform="translate(405.03125 0)"/>
     <use xlink:href="#SegoeUI-52" transform="translate(491.171875 0)"/>
     <use xlink:href="#SegoeUI-58" transform="translate(549.765625 0)"/>
     <use xlink:href="#SegoeUI-51" transform="translate(606.359375 0)"/>
     <use xlink:href="#SegoeUI-57" transform="translate(662.953125 0)"/>
     <use xlink:href="#SegoeUI-3" transform="translate(696.84375 0)"/>
     <use xlink:href="#SegoeUI-b" transform="translate(724.234375 0)"/>
     <use xlink:href="#SegoeUI-27" transform="translate(754.40625 0)"/>
     <use xlink:href="#SegoeUI-4c" transform="translate(824.53125 0)"/>
     <use xlink:href="#SegoeUI-56" transform="translate(848.75 0)"/>
     <use xlink:href="#SegoeUI-53" transform="translate(891.1875 0)"/>
     <use xlink:href="#SegoeUI-4f" transform="translate(949.984375 0)"/>
     <use xlink:href="#SegoeUI-44" transform="translate(974.203125 0)"/>
     <use xlink:href="#SegoeUI-5c" transform="translate(1025.078125 0)"/>
     <use xlink:href="#SegoeUI-c" transform="translate(1073.46875 0)"/>
     <use xlink:href="#SegoeUI-3" transform="translate(1103.640625 0)"/>
     <use xlink:href="#SegoeUI-45" transform="translate(1131.03125 0)"/>
     <use xlink:href="#SegoeUI-5c" transform="translate(1189.828125 0)"/>
     <use xlink:href="#SegoeUI-3" transform="translate(1238.21875 0)"/>
     <use xlink:href="#SegoeUI-26" transform="translate(1265.609375 0)"/>
     <use xlink:href="#SegoeUI-52" transform="translate(1327.53125 0)"/>
     <use xlink:href="#SegoeUI-58" transform="translate(1386.125 0)"/>
     <use xlink:href="#SegoeUI-51" transform="translate(1442.71875 0)"/>
     <use xlink:href="#SegoeUI-57" transform="translate(1499.3125 0)"/>
     <use xlink:href="#SegoeUI-48" transform="translate(1533.203125 0)"/>
     <use xlink:href="#SegoeUI-55" transform="translate(1585.5 0)"/>
     <use xlink:href="#SegoeUI-53" transform="translate(1620.265625 0)"/>
     <use xlink:href="#SegoeUI-44" transform="translate(1679.0625 0)"/>
     <use xlink:href="#SegoeUI-55" transform="translate(1729.9375 0)"/>
     <use xlink:href="#SegoeUI-57" transform="translate(1764.703125 0)"/>
     <use xlink:href="#SegoeUI-5c" transform="translate(1798.59375 0)"/>
    </g>
   </g>
  </g>
 </g>
 <defs>
  <clipPath id="p073858f219">
   <rect x="115.969062" y="28.21125" width="516.7" height="348.365957"/>
  </clipPath>
 </defs>
</svg>
